<?xml version="1.0" encoding="UTF-8"?>
<svg id="_レイヤー_1" data-name="レイヤー 1" xmlns="http://www.w3.org/2000/svg" xmlns:xlink="http://www.w3.org/1999/xlink" viewBox="0 0 108 108">
  <defs>
    <style>
      .cls-1 {
        fill: url(#_名称未設定グラデーション);
      }
    </style>
    <linearGradient id="_名称未設定グラデーション" data-name="名称未設定グラデーション" x1="370.21" y1="-1313.8" x2="401.55" y2="-1269.02" gradientTransform="translate(-128.49 -1281.05) rotate(8.92) scale(1 -1)" gradientUnits="userSpaceOnUse">
      <stop offset="0" stop-color="#8fd3f4"/>
      <stop offset=".19" stop-color="#8cdfe0"/>
      <stop offset=".5" stop-color="#87eec6"/>
      <stop offset=".78" stop-color="#85f7b6"/>
      <stop offset="1" stop-color="#84fab0"/>
    </linearGradient>
  </defs>
  <g id="_レイヤー_1-2" data-name="レイヤー 1">
    <path class="cls-1" d="m49.28,81.04c-4-.63-7.17-2.53-9.62-5.73-2.38-3.17-3.27-6.78-2.64-10.75l4.47-28.32c.43-2.8,1.8-5.04,4.11-6.72,2.31-1.65,4.85-2.28,7.68-1.83,2.88.44,5.1,1.8,6.78,4.1s2.28,4.85,1.83,7.7l-4.07,25.97c-.27,1.68-1.05,3-2.37,3.99s-2.8,1.35-4.48,1.07-2.98-1.11-3.93-2.53-1.27-3-1-4.72l4.07-25.8,2.64.4-4.11,25.99c-.15.96.05,1.83.57,2.62.54.78,1.26,1.26,2.16,1.38.9.12,1.74-.06,2.48-.63.73-.57,1.2-1.31,1.32-2.22l4.09-25.99c.33-2.1-.12-4-1.37-5.69-1.26-1.68-2.91-2.69-5.04-3.01-2.12-.33-3.99.12-5.68,1.36-1.7,1.25-2.73,2.89-3.06,4.99l-4.45,28.45c-.48,3.21.22,6.11,2.22,8.68,1.97,2.58,4.59,4.11,7.83,4.63,3.3.52,6.27-.15,8.94-2.04s4.24-4.42,4.74-7.69l4.47-28.45,2.64.4-4.46,28.41c-.63,4.01-2.58,7.16-5.83,9.47-3.29,2.31-6.92,3.15-10.92,2.52Z"/>
  </g>
</svg>